<?xml version="1.0" encoding="UTF-8"?>
<svg xmlns="http://www.w3.org/2000/svg" width="300" height="361.06" xmlns:xlink="http://www.w3.org/1999/xlink" viewBox="0 0 300 361.06">
  <defs>
    <style>
      .cls-1 {
        fill: url(#linear-gradient-3);
      }

      .cls-2 {
        fill: url(#linear-gradient-2);
      }

      .cls-3 {
        stroke: #fff;
      }

      .cls-3, .cls-4 {
        fill: none;
        stroke-linecap: round;
        stroke-linejoin: round;
        stroke-width: 6.46px;
      }

      .cls-5 {
        fill: #fff;
      }

      .cls-6 {
        fill: #61d94f;
      }

      .cls-7 {
        fill: url(#linear-gradient);
      }

      .cls-4 {
        stroke: #61d94f;
      }

      .cls-8, .cls-9 {
        opacity: .2;
      }

      .cls-10 {
        isolation: isolate;
      }

      .cls-9 {
        mix-blend-mode: multiply;
      }
    </style>
    <linearGradient id="linear-gradient" x1="91.69" y1="213.52" x2="455.68" y2="-138.46" gradientTransform="matrix(1, 0, 0, 1, 0, 0)" gradientUnits="userSpaceOnUse">
      <stop offset="0" stop-color="#032d42"/>
      <stop offset=".11" stop-color="#033044"/>
      <stop offset=".19" stop-color="#05394d"/>
      <stop offset=".26" stop-color="#09495d"/>
      <stop offset=".33" stop-color="#0e6072"/>
      <stop offset=".39" stop-color="#157e8e"/>
      <stop offset=".45" stop-color="#1da1af"/>
      <stop offset=".49" stop-color="#24c1cd"/>
    </linearGradient>
    <linearGradient id="linear-gradient-2" x1="11.99" y1="276.55" x2="288" y2="276.55" gradientTransform="matrix(1, 0, 0, 1, 0, 0)" gradientUnits="userSpaceOnUse">
      <stop offset="0" stop-color="#000"/>
      <stop offset="1" stop-color="#000" stop-opacity="0"/>
    </linearGradient>
    <linearGradient id="linear-gradient-3" x1="0" y1="180.53" x2="300" y2="180.53" gradientTransform="matrix(1, 0, 0, 1, 0, 0)" gradientUnits="userSpaceOnUse">
      <stop offset="0" stop-color="#009056"/>
      <stop offset="1" stop-color="#85ec78"/>
    </linearGradient>
  </defs>
  <g class="cls-10">
    <g id="fill">
      <path class="cls-7" d="M141.44,13.58L27.44,57.11c-9.3,3.55-15.44,12.47-15.44,22.42V221.56c0,4.29,1.16,8.5,3.33,12.2,10.82,18.45,27.9,42.74,53.87,66.26,25.58,23.16,51.14,37.75,70.8,46.84,6.35,2.94,13.67,2.94,20.01,0,19.66-9.1,45.22-23.68,70.8-46.84,25.96-23.51,43.04-47.81,53.87-66.26,2.17-3.7,3.33-7.91,3.33-12.2V79.53c0-9.95-6.14-18.87-15.44-22.42L158.56,13.58c-5.51-2.11-11.61-2.11-17.12,0Z"/>
    </g>
    <g id="reflection_layer" data-name="reflection layer">
      <g class="cls-9">
        <path class="cls-2" d="M288,204.06v17.5c0,4.29-1.16,8.5-3.33,12.2-10.83,18.45-27.91,42.75-53.87,66.26-25.58,23.16-51.14,37.75-70.8,46.84-6.34,2.94-13.67,2.94-20.01,0-19.66-9.09-45.22-23.68-70.8-46.84-25.96-23.51-43.04-47.81-53.87-66.26-2.17-3.7-3.33-7.91-3.33-12.2v-17.51c34.59,36.67,83.63,59.55,138.01,59.55s103.42-22.88,138-59.54Z"/>
      </g>
    </g>
    <g id="stroke">
      <path class="cls-1" d="M150,12c2.9,0,5.8,.53,8.56,1.58l114,43.53c9.3,3.55,15.44,12.47,15.44,22.42V221.56c0,4.29-1.16,8.5-3.33,12.2-10.82,18.45-27.9,42.74-53.87,66.26-25.58,23.16-51.14,37.75-70.8,46.84-3.17,1.47-6.59,2.2-10.01,2.2s-6.83-.73-10.01-2.2c-19.66-9.1-45.22-23.68-70.8-46.84-25.96-23.51-43.04-47.81-53.87-66.26-2.17-3.7-3.33-7.91-3.33-12.2V79.53c0-9.95,6.14-18.87,15.44-22.42L141.44,13.58c2.76-1.05,5.66-1.58,8.56-1.58m0-12c-4.41,0-8.73,.8-12.84,2.37L23.16,45.9C9.3,51.19,0,64.7,0,79.53V221.56c0,6.4,1.72,12.72,4.98,18.27,15.13,25.79,34.03,49.03,56.16,69.08,22,19.92,46.83,36.36,73.81,48.84,4.68,2.17,9.88,3.31,15.05,3.31s10.37-1.15,15.05-3.31c26.98-12.48,51.81-28.92,73.81-48.84,22.14-20.05,41.03-43.29,56.16-69.08,3.26-5.55,4.98-11.87,4.98-18.27V79.53c0-14.83-9.31-28.34-23.16-33.63L162.84,2.37c-4.11-1.57-8.44-2.37-12.84-2.37h0Z"/>
    </g>
    <g id="icon">
      <path class="cls-4" d="M144.41,160.15c-2.31-19.4-14.06-34.17-28.21-34.17v34.17h28.21Z"/>
      <path class="cls-4" d="M116.2,208.31c15.81,0,28.63-18.43,28.63-41.16,0-2.39-.15-4.72-.42-6.99h-56.42c-.27,2.27-.42,4.61-.42,6.99,0,22.73,12.82,41.16,28.63,41.16Z"/>
      <path class="cls-4" d="M203.23,119.31l-11.83-17.22c-.38,2.22-.89,5.42-1.41,9.31-1.6,11.96-2.4,17.94-1.35,20.88,3.28,9.23,15.8,5.75,25.13,15.13,10.01,10.07,13.71,32.27,1.89,45.66-7.52,8.52-19.63,12.33-30.53,10-12.53-2.68-19.34-12.72-20.11-13.89-14.49-22,9.88-45.93-2.91-67.34-7.85-13.15-27.48-21.6-37.74-15.13-7.12,4.49-8.03,15.09-8.17,19.27"/>
      <line class="cls-4" x1="176.21" y1="113.1" x2="191.41" y2="102.09"/>
      <path class="cls-5" d="M203.9,166.96c-.12-.22-.31-.41-.53-.53-.22-.13-.47-.19-.72-.19h-9.52l2.48-11.72c.06-.31,0-.63-.16-.9-.16-.27-.41-.48-.71-.59-.29-.12-.62-.14-.93-.06-.31,.08-.58,.26-.78,.51l-14.05,18.64c-.13,.19-.21,.42-.23,.65s.02,.47,.13,.68c.12,.22,.31,.41,.53,.53,.22,.13,.47,.19,.72,.19h9.52l-2.48,11.72c-.07,.32-.01,.66,.15,.95s.44,.5,.75,.6c.18,.07,.37,.1,.56,.11,.22,0,.44-.05,.64-.15,.2-.1,.37-.24,.51-.41l14.05-18.64c.14-.2,.22-.44,.23-.68,.01-.24-.04-.49-.16-.7Z"/>
      <path class="cls-3" d="M116.2,160.15v-34.17c-14.15,0-25.9,14.77-28.21,34.17h28.21Z"/>
    </g>
    <g id="double_stroke" data-name="double stroke">
      <path class="cls-5" d="M12,79.53c.9,42.44,1.64,93.99,2.07,136.53-.02,4.8-.15,10.17,2.1,14.53,26.87,46.47,67.76,84.65,115.57,108.95,5.83,2.73,11.61,6.63,18.26,6.52,6.65,.1,12.43-3.79,18.26-6.52,18.55-9.39,35.99-20.92,52.02-34.16,24.75-20.41,45.9-45.17,62.42-72.68,2.07-3.44,3.18-7.36,3.18-11.39l.04-5.25c.09-6.96,.5-44.77,.61-52.51,.38-23.62,.92-60.62,1.47-84.02,.19,10.53,.69,31.5,.79,42.01,.38,28.36,1.17,71.54,1.33,99.77,.17,5.66-1.85,11.22-4.91,15.93-26.78,45.76-67,83.52-114.26,107.58-6.64,3.25-13.29,7.4-20.95,7.23-7.67,.16-14.31-3.98-20.95-7.24-47.26-24.05-87.47-61.83-114.25-107.58-3.04-4.71-5.1-10.27-4.91-15.93,.45-44.5,1.13-97.35,2.11-141.79h0Z"/>
    </g>
    <g id="highlight">
      <g class="cls-8">
        <path class="cls-5" d="M251.81,61.24l15.7,6.34c6.44,2.6,10.7,8.79,10.84,15.73l.41,20.64c.98,4.37-4.98,6.68-7.2,2.78l-8.74-22.14c-.26-.45-.6-.85-1.01-1.16l-13.02-15.24c-3.22-2.47-.99-7.6,3.02-6.94Z"/>
      </g>
    </g>
    <g id="text">
      <g>
        <path class="cls-6" d="M115.44,257.98l-1.51-4.54h-10.04l-1.51,4.54h-5.36l8.82-25.2h6.16l8.85,25.2h-5.4Zm-9.97-9.18h6.91l-3.46-10.29-3.46,10.29Z"/>
        <path class="cls-6" d="M136.21,232.78h4.64v25.2h-4.64v-2.12c-1.37,1.76-3.31,2.63-5.83,2.63s-4.5-.9-6.23-2.74c-1.69-1.84-2.56-4.1-2.56-6.77s.86-4.9,2.56-6.73c1.73-1.84,3.82-2.77,6.23-2.77s4.46,.86,5.83,2.63v-9.32Zm-4.97,21.27c1.44,0,2.63-.47,3.56-1.4,.94-.97,1.4-2.2,1.4-3.67s-.47-2.7-1.4-3.64c-.94-.97-2.12-1.44-3.56-1.44s-2.63,.47-3.6,1.44c-.94,.94-1.4,2.16-1.4,3.64s.47,2.7,1.4,3.67c.97,.94,2.16,1.4,3.6,1.4Z"/>
        <path class="cls-6" d="M171.81,246.89v11.09h-4.64v-10.76c0-2.16-1.12-3.42-3.02-3.42-2.12,0-3.35,1.44-3.35,4.07v10.11h-4.64v-10.76c0-2.16-1.12-3.42-3.02-3.42-2.05,0-3.38,1.44-3.38,4.07v10.11h-4.64v-18h4.64v1.91c1.08-1.62,2.74-2.41,5-2.41s3.85,.86,4.9,2.59c1.19-1.73,2.99-2.59,5.36-2.59,4.14,0,6.8,2.92,6.8,7.42Z"/>
        <path class="cls-6" d="M175.24,234.97c0-1.55,1.3-2.88,2.84-2.88s2.88,1.33,2.88,2.88-1.3,2.84-2.88,2.84-2.84-1.3-2.84-2.84Zm.54,23v-18h4.64v18h-4.64Z"/>
        <path class="cls-6" d="M199.54,241.45c1.3,1.33,1.94,3.13,1.94,5.47v11.05h-4.64v-10.47c0-2.41-1.4-3.71-3.56-3.71-2.41,0-3.96,1.48-3.96,4.46v9.72h-4.64v-18h4.64v2.02c1.12-1.69,2.92-2.52,5.36-2.52,1.98,0,3.6,.65,4.86,1.98Z"/>
      </g>
      <g>
        <path class="cls-5" d="M113.87,56.79c-1.51,0-2.8,.54-3.84,1.38v-1.24h-3.5v13.63h3.64v-8.72c.5-.7,1.76-1.69,3.31-1.69,.55,0,1.05,.04,1.46,.22v-3.5c-.35-.06-.71-.09-1.07-.09"/>
        <path class="cls-5" d="M82.13,66.41c.92,.84,2.35,1.35,3.73,1.35,.98,0,1.74-.48,1.74-1.15,0-2.05-6.58-1.32-6.58-5.71,0-2.61,2.52-4.25,5.21-4.25,1.76,0,3.7,.68,4.59,1.38l-1.71,2.64c-.7-.51-1.62-.93-2.61-.93s-1.85,.39-1.85,1.1c0,1.77,6.58,1.07,6.58,5.79,0,2.62-2.55,4.22-5.41,4.22-1.88,0-3.86-.65-5.46-1.83l1.76-2.62Z"/>
        <path class="cls-5" d="M95.65,62c.17-1.24,1.4-2.39,2.91-2.39s2.58,1.18,2.69,2.39h-5.6Zm9.33,1.63c0-3.8-2.66-6.97-6.41-6.97-4.03,0-6.61,3.32-6.61,7.11,0,4.27,3.05,7.08,7.11,7.08,2.1,0,4.26-.87,5.57-2.45l-2.07-2.08c-.64,.7-1.88,1.57-3.42,1.57-1.93,0-3.47-1.32-3.67-3.23h9.41c.06-.31,.08-.67,.08-1.04"/>
        <polygon class="cls-5" points="123.62 65.26 127.35 56.94 131.13 56.94 124.88 70.57 122.36 70.57 116.11 56.94 119.9 56.94 123.62 65.26"/>
        <path class="cls-5" d="M134.19,50.53c1.32,0,2.38,1.01,2.38,2.33s-1.07,2.33-2.38,2.33-2.38-1.01-2.38-2.33,1.06-2.33,2.38-2.33"/>
        <rect class="cls-5" x="132.37" y="56.94" width="3.64" height="13.63"/>
        <path class="cls-5" d="M151.06,67.79c-1.6,2.14-3.61,3.06-6.16,3.06-4.2,0-7.28-3.15-7.28-7.08s3.17-7.11,7.31-7.11c2.35,0,4.45,1.1,5.71,2.73l-2.58,2.28c-.73-.96-1.82-1.63-3.14-1.63-2.1,0-3.67,1.66-3.67,3.74s1.54,3.71,3.75,3.71c1.48,0,2.66-.9,3.25-1.8l2.8,2.11Z"/>
        <path class="cls-5" d="M160.9,62c-.11-1.21-1.2-2.39-2.69-2.39s-2.75,1.15-2.91,2.39h5.6Zm3.39,6.41c-1.32,1.57-3.47,2.45-5.57,2.45-4.06,0-7.11-2.81-7.11-7.08,0-3.8,2.58-7.11,6.61-7.11,3.75,0,6.41,3.18,6.41,6.97,0,.37-.03,.73-.09,1.04h-9.41c.2,1.91,1.74,3.23,3.67,3.23,1.54,0,2.77-.87,3.42-1.57l2.07,2.08Z"/>
        <path class="cls-5" d="M166.07,70.57v-13.63h3.5v1.1c1.04-.84,2.33-1.38,3.84-1.38,1.88,0,3.59,.84,4.71,2.19,.9,1.07,1.4,2.45,1.4,4.78v6.94h-3.64v-7.22c0-1.35-.31-2.05-.81-2.56-.48-.48-1.2-.76-2.05-.76-1.54,0-2.8,.98-3.31,1.69v8.86h-3.64Z"/>
        <path class="cls-6" d="M188.85,68.61c-2.36,0-3.97-1.77-3.97-3.97s1.61-4,3.97-4,3.97,1.8,3.97,4-1.61,3.97-3.97,3.97m.05-11.95c-4.35-.02-7.95,3.53-7.99,7.9-.02,2.31,.94,4.4,2.49,5.87,.56,.53,1.44,.59,2.05,.11,.9-.7,2.06-1.13,3.4-1.13s2.49,.42,3.4,1.13c.62,.48,1.49,.42,2.06-.12,1.53-1.45,2.48-3.51,2.48-5.79,0-4.38-3.53-7.94-7.89-7.97"/>
        <polygon class="cls-5" points="204 70.57 201.28 70.57 195.88 56.94 199.51 56.94 202.48 64.73 205.38 56.94 208.42 56.94 211.3 64.73 214.3 56.94 217.93 56.94 212.52 70.57 209.81 70.57 206.9 62.81 204 70.57"/>
        <path class="cls-5" d="M217.67,68.8h.37c.14,0,.25-.12,.25-.26s-.11-.27-.25-.27h-.37v.53Zm.31,.23h-.31v.58h-.26v-1.58h.63c.28,0,.51,.23,.51,.51,0,.2-.13,.38-.31,.46l.36,.61h-.28l-.33-.58Z"/>
        <path class="cls-5" d="M217.94,67.15c-.94,0-1.7,.76-1.7,1.7s.76,1.7,1.7,1.7,1.7-.76,1.7-1.7-.76-1.7-1.7-1.7m0,.23c.81,0,1.47,.66,1.47,1.47s-.66,1.46-1.47,1.46-1.46-.66-1.46-1.46,.66-1.47,1.46-1.47"/>
      </g>
    </g>
    <g id="STARS_AND_DIAMONDS" data-name="STARS AND DIAMONDS"/>
  </g>
</svg>